# xmcd
#
# Track frame offsets:
#	150
#	8277
#	28012
#	46500
#	67927
#	88362
#	102175
#	118030
#	131602
#	148265
#	166857
#	184305
#	185290
#	213502
#
# Disc length: 2939 seconds
#
# Revision: 0
# Processed by: cddbd v1.5.1PL0 Copyright (c) Steve Scherf et al.
# Submitted via: audiograbber 1.83.01
#
DISCID=b90b790e
DTITLE=Shaquille O'Neal - Shaq Diesel
DYEAR=1993
DGENRE=Rap
TTITLE0=Intro
TTITLE1=(I Know I Got) Skillz
TTITLE2=I'm Outstanding
TTITLE3=Where Ya At?
TTITLE4=I Hate 2 Brag
TTITLE5=Let Me In, Let Me In
TTITLE6=Shoot Pass Slam
TTITLE7=Boom!
TTITLE8=Are You A Roughneck
TTITLE9=Giggin' On Em
TTITLE10=What's Up Doc? (Can We Rock)
TTITLE11=Game Over
TTITLE12=Shoot Pass Slam (Slammin' Sennon Remix)
TTITLE13=Daten-CD
EXTD=
EXTT0=
EXTT1=
EXTT2=
EXTT3=
EXTT4=
EXTT5=
EXTT6=
EXTT7=
EXTT8=
EXTT9=
EXTT10=
EXTT11=
EXTT12=
EXTT13=
PLAYORDER=
